<svg width="24" height="24" viewBox="0 0 24 24" fill="none" xmlns="http://www.w3.org/2000/svg">
<path d="M12.0048 6.60977C9.02354 6.60977 6.61885 9.01445 6.61885 11.9957C6.61885 14.977 9.02354 17.3816 12.0048 17.3816C14.986 17.3816 17.3907 14.977 17.3907 11.9957C17.3907 9.01445 14.986 6.60977 12.0048 6.60977ZM12.0048 15.4973C10.0782 15.4973 8.50322 13.927 8.50322 11.9957C8.50322 10.0645 10.0735 8.49414 12.0048 8.49414C13.936 8.49414 15.5063 10.0645 15.5063 11.9957C15.5063 13.927 13.9313 15.4973 12.0048 15.4973ZM18.8673 6.38945C18.8673 7.08789 18.3048 7.6457 17.611 7.6457C16.9126 7.6457 16.3548 7.0832 16.3548 6.38945C16.3548 5.6957 16.9173 5.1332 17.611 5.1332C18.3048 5.1332 18.8673 5.6957 18.8673 6.38945ZM22.4345 7.66445C22.3548 5.98164 21.9704 4.49102 20.7376 3.26289C19.5095 2.03477 18.0188 1.65039 16.336 1.56602C14.6017 1.46758 9.40322 1.46758 7.66885 1.56602C5.99072 1.6457 4.5001 2.03008 3.26729 3.2582C2.03447 4.48633 1.65479 5.97695 1.57041 7.65977C1.47197 9.39414 1.47197 14.5926 1.57041 16.327C1.6501 18.0098 2.03447 19.5004 3.26729 20.7285C4.5001 21.9566 5.98604 22.341 7.66885 22.4254C9.40322 22.5238 14.6017 22.5238 16.336 22.4254C18.0188 22.3457 19.5095 21.9613 20.7376 20.7285C21.9657 19.5004 22.3501 18.0098 22.4345 16.327C22.5329 14.5926 22.5329 9.39883 22.4345 7.66445ZM20.1938 18.1879C19.8282 19.1066 19.1204 19.8145 18.197 20.1848C16.8142 20.7332 13.5329 20.6066 12.0048 20.6066C10.4767 20.6066 7.19072 20.7285 5.8126 20.1848C4.89385 19.8191 4.18604 19.1113 3.81572 18.1879C3.26729 16.8051 3.39385 13.5238 3.39385 11.9957C3.39385 10.4676 3.27197 7.18164 3.81572 5.80352C4.18135 4.88477 4.88916 4.17695 5.8126 3.80664C7.19541 3.2582 10.4767 3.38477 12.0048 3.38477C13.5329 3.38477 16.8188 3.26289 18.197 3.80664C19.1157 4.17227 19.8235 4.88008 20.1938 5.80352C20.7423 7.18633 20.6157 10.4676 20.6157 11.9957C20.6157 13.5238 20.7423 16.8098 20.1938 18.1879Z" fill="#181717"/>
</svg>
